<mxfile host="app.diagrams.net" modified="2021-09-29T09:02:39.473Z" agent="5.0 (Windows NT 10.0; WOW64) AppleWebKit/537.36 (KHTML, like Gecko) Chrome/86.0.4240.198 Safari/537.36" etag="viJmzkUA-1XvgQt6gTIR" version="15.2.9" type="github">
  <diagram id="2XZN8_0mVDKEk1uRL6Ag" name="Page-1">
    <mxGraphModel dx="854" dy="690" grid="1" gridSize="10" guides="1" tooltips="1" connect="1" arrows="1" fold="1" page="1" pageScale="1" pageWidth="827" pageHeight="1169" math="0" shadow="0">
      <root>
        <mxCell id="0" />
        <mxCell id="1" parent="0" />
        <mxCell id="HU2Gg8F_8cAQdYwglAM5-1" value="" style="ellipse;whiteSpace=wrap;html=1;" parent="1" vertex="1">
          <mxGeometry x="210" y="20" width="120" height="80" as="geometry" />
        </mxCell>
        <mxCell id="HU2Gg8F_8cAQdYwglAM5-2" value="" style="rounded=1;whiteSpace=wrap;html=1;" parent="1" vertex="1">
          <mxGeometry x="50" y="30" width="120" height="60" as="geometry" />
        </mxCell>
        <mxCell id="HU2Gg8F_8cAQdYwglAM5-3" value="" style="whiteSpace=wrap;html=1;aspect=fixed;" parent="1" vertex="1">
          <mxGeometry x="390" y="20" width="80" height="80" as="geometry" />
        </mxCell>
        <mxCell id="hKPpPpnS2e1j_frjE1Dq-2" value="SUPPILERS" style="rounded=0;whiteSpace=wrap;html=1;" vertex="1" parent="1">
          <mxGeometry x="80" y="340" width="100" height="50" as="geometry" />
        </mxCell>
        <mxCell id="hKPpPpnS2e1j_frjE1Dq-3" value="WAREHOUSE" style="rounded=0;whiteSpace=wrap;html=1;" vertex="1" parent="1">
          <mxGeometry x="410" y="560" width="100" height="50" as="geometry" />
        </mxCell>
        <mxCell id="hKPpPpnS2e1j_frjE1Dq-4" value="SUPPLY" style="rhombus;whiteSpace=wrap;html=1;" vertex="1" parent="1">
          <mxGeometry x="260" y="545" width="80" height="80" as="geometry" />
        </mxCell>
        <mxCell id="hKPpPpnS2e1j_frjE1Dq-5" value="MATERIAL" style="rounded=0;whiteSpace=wrap;html=1;" vertex="1" parent="1">
          <mxGeometry x="80" y="560" width="100" height="50" as="geometry" />
        </mxCell>
        <mxCell id="hKPpPpnS2e1j_frjE1Dq-6" value="PRODUCE" style="rhombus;whiteSpace=wrap;html=1;" vertex="1" parent="1">
          <mxGeometry x="90" y="440" width="80" height="80" as="geometry" />
        </mxCell>
        <mxCell id="hKPpPpnS2e1j_frjE1Dq-8" value="" style="endArrow=none;html=1;entryX=0.5;entryY=1;entryDx=0;entryDy=0;exitX=0.5;exitY=0;exitDx=0;exitDy=0;" edge="1" parent="1" source="hKPpPpnS2e1j_frjE1Dq-6" target="hKPpPpnS2e1j_frjE1Dq-2">
          <mxGeometry width="50" height="50" relative="1" as="geometry">
            <mxPoint x="230" y="500" as="sourcePoint" />
            <mxPoint x="280" y="450" as="targetPoint" />
          </mxGeometry>
        </mxCell>
        <mxCell id="hKPpPpnS2e1j_frjE1Dq-9" value="" style="endArrow=none;html=1;entryX=0.5;entryY=0;entryDx=0;entryDy=0;exitX=0.5;exitY=1;exitDx=0;exitDy=0;" edge="1" parent="1" source="hKPpPpnS2e1j_frjE1Dq-6" target="hKPpPpnS2e1j_frjE1Dq-5">
          <mxGeometry width="50" height="50" relative="1" as="geometry">
            <mxPoint x="230" y="500" as="sourcePoint" />
            <mxPoint x="280" y="450" as="targetPoint" />
          </mxGeometry>
        </mxCell>
        <mxCell id="hKPpPpnS2e1j_frjE1Dq-11" value="" style="endArrow=none;html=1;entryX=0;entryY=0.5;entryDx=0;entryDy=0;exitX=1;exitY=0.5;exitDx=0;exitDy=0;" edge="1" parent="1" source="hKPpPpnS2e1j_frjE1Dq-4" target="hKPpPpnS2e1j_frjE1Dq-3">
          <mxGeometry width="50" height="50" relative="1" as="geometry">
            <mxPoint x="450" y="300" as="sourcePoint" />
            <mxPoint x="280" y="450" as="targetPoint" />
          </mxGeometry>
        </mxCell>
        <mxCell id="hKPpPpnS2e1j_frjE1Dq-12" value="" style="endArrow=none;html=1;entryX=1;entryY=0.5;entryDx=0;entryDy=0;exitX=0;exitY=0.5;exitDx=0;exitDy=0;" edge="1" parent="1" source="hKPpPpnS2e1j_frjE1Dq-4" target="hKPpPpnS2e1j_frjE1Dq-5">
          <mxGeometry width="50" height="50" relative="1" as="geometry">
            <mxPoint x="230" y="500" as="sourcePoint" />
            <mxPoint x="280" y="450" as="targetPoint" />
          </mxGeometry>
        </mxCell>
        <mxCell id="hKPpPpnS2e1j_frjE1Dq-15" value="PRODUCE" style="rhombus;whiteSpace=wrap;html=1;" vertex="1" parent="1">
          <mxGeometry x="420" y="430" width="80" height="80" as="geometry" />
        </mxCell>
        <mxCell id="hKPpPpnS2e1j_frjE1Dq-17" value="" style="endArrow=none;html=1;exitX=0.5;exitY=1;exitDx=0;exitDy=0;entryX=0.5;entryY=0;entryDx=0;entryDy=0;" edge="1" parent="1" source="hKPpPpnS2e1j_frjE1Dq-15" target="hKPpPpnS2e1j_frjE1Dq-3">
          <mxGeometry width="50" height="50" relative="1" as="geometry">
            <mxPoint x="450" y="300" as="sourcePoint" />
            <mxPoint x="540" y="530" as="targetPoint" />
          </mxGeometry>
        </mxCell>
        <mxCell id="hKPpPpnS2e1j_frjE1Dq-18" value="" style="endArrow=none;html=1;entryX=0.5;entryY=1;entryDx=0;entryDy=0;exitX=0.5;exitY=0;exitDx=0;exitDy=0;" edge="1" parent="1" source="hKPpPpnS2e1j_frjE1Dq-15" target="hKPpPpnS2e1j_frjE1Dq-19">
          <mxGeometry width="50" height="50" relative="1" as="geometry">
            <mxPoint x="580" y="430" as="sourcePoint" />
            <mxPoint x="600" y="400" as="targetPoint" />
          </mxGeometry>
        </mxCell>
        <mxCell id="hKPpPpnS2e1j_frjE1Dq-19" value="PRODUCTS" style="rounded=0;whiteSpace=wrap;html=1;" vertex="1" parent="1">
          <mxGeometry x="410" y="340" width="100" height="50" as="geometry" />
        </mxCell>
        <mxCell id="hKPpPpnS2e1j_frjE1Dq-20" value="VENDOR" style="rounded=0;whiteSpace=wrap;html=1;" vertex="1" parent="1">
          <mxGeometry x="690" y="340" width="100" height="50" as="geometry" />
        </mxCell>
        <mxCell id="hKPpPpnS2e1j_frjE1Dq-21" value="SUPLLY" style="rhombus;whiteSpace=wrap;html=1;" vertex="1" parent="1">
          <mxGeometry x="570" y="325" width="80" height="80" as="geometry" />
        </mxCell>
        <mxCell id="hKPpPpnS2e1j_frjE1Dq-26" value="ID" style="ellipse;whiteSpace=wrap;html=1;" vertex="1" parent="1">
          <mxGeometry x="22.5" y="300" width="52.5" height="35" as="geometry" />
        </mxCell>
        <mxCell id="hKPpPpnS2e1j_frjE1Dq-27" value="Name" style="ellipse;whiteSpace=wrap;html=1;" vertex="1" parent="1">
          <mxGeometry x="70" y="255" width="67.5" height="45" as="geometry" />
        </mxCell>
        <mxCell id="hKPpPpnS2e1j_frjE1Dq-28" value="Address" style="ellipse;whiteSpace=wrap;html=1;" vertex="1" parent="1">
          <mxGeometry x="137.5" y="257.5" width="67.5" height="45" as="geometry" />
        </mxCell>
        <mxCell id="hKPpPpnS2e1j_frjE1Dq-31" value="ID" style="ellipse;whiteSpace=wrap;html=1;" vertex="1" parent="1">
          <mxGeometry x="212.5" y="525" width="52.5" height="35" as="geometry" />
        </mxCell>
        <mxCell id="hKPpPpnS2e1j_frjE1Dq-33" value="Date" style="ellipse;whiteSpace=wrap;html=1;" vertex="1" parent="1">
          <mxGeometry x="300" y="485" width="52.5" height="35" as="geometry" />
        </mxCell>
        <mxCell id="hKPpPpnS2e1j_frjE1Dq-34" value="Amount" style="ellipse;whiteSpace=wrap;html=1;" vertex="1" parent="1">
          <mxGeometry x="330" y="520" width="67.5" height="45" as="geometry" />
        </mxCell>
        <mxCell id="hKPpPpnS2e1j_frjE1Dq-36" value="ID" style="ellipse;whiteSpace=wrap;html=1;" vertex="1" parent="1">
          <mxGeometry x="245" y="486.67" width="50" height="33.33" as="geometry" />
        </mxCell>
        <mxCell id="hKPpPpnS2e1j_frjE1Dq-42" value="Name" style="ellipse;whiteSpace=wrap;html=1;" vertex="1" parent="1">
          <mxGeometry x="431.25" y="242.5" width="61.25" height="40.83" as="geometry" />
        </mxCell>
        <mxCell id="hKPpPpnS2e1j_frjE1Dq-43" value="ID" style="ellipse;whiteSpace=wrap;html=1;" vertex="1" parent="1">
          <mxGeometry x="367.5" y="272.5" width="60" height="40" as="geometry" />
        </mxCell>
        <mxCell id="hKPpPpnS2e1j_frjE1Dq-45" value="Amount" style="ellipse;whiteSpace=wrap;html=1;" vertex="1" parent="1">
          <mxGeometry x="502.5" y="267.5" width="67.5" height="45" as="geometry" />
        </mxCell>
        <mxCell id="hKPpPpnS2e1j_frjE1Dq-51" value="ID" style="ellipse;whiteSpace=wrap;html=1;" vertex="1" parent="1">
          <mxGeometry x="560" y="475" width="52.5" height="35" as="geometry" />
        </mxCell>
        <mxCell id="hKPpPpnS2e1j_frjE1Dq-52" value="ID" style="ellipse;whiteSpace=wrap;html=1;" vertex="1" parent="1">
          <mxGeometry x="555" y="430" width="50" height="33.33" as="geometry" />
        </mxCell>
        <mxCell id="hKPpPpnS2e1j_frjE1Dq-53" value="Date" style="ellipse;whiteSpace=wrap;html=1;" vertex="1" parent="1">
          <mxGeometry x="502.5" y="408.34000000000003" width="52.5" height="35" as="geometry" />
        </mxCell>
        <mxCell id="hKPpPpnS2e1j_frjE1Dq-54" value="Amount" style="ellipse;whiteSpace=wrap;html=1;" vertex="1" parent="1">
          <mxGeometry x="492.5" y="495" width="67.5" height="45" as="geometry" />
        </mxCell>
        <mxCell id="hKPpPpnS2e1j_frjE1Dq-59" value="Name" style="ellipse;whiteSpace=wrap;html=1;" vertex="1" parent="1">
          <mxGeometry x="75" y="660" width="67.5" height="45" as="geometry" />
        </mxCell>
        <mxCell id="hKPpPpnS2e1j_frjE1Dq-61" value="ID" style="ellipse;whiteSpace=wrap;html=1;" vertex="1" parent="1">
          <mxGeometry x="22.5" y="635" width="52.5" height="35" as="geometry" />
        </mxCell>
        <mxCell id="hKPpPpnS2e1j_frjE1Dq-62" value="Capability" style="ellipse;whiteSpace=wrap;html=1;" vertex="1" parent="1">
          <mxGeometry x="190" y="300" width="75" height="50" as="geometry" />
        </mxCell>
        <mxCell id="hKPpPpnS2e1j_frjE1Dq-63" value="Capability" style="ellipse;whiteSpace=wrap;html=1;" vertex="1" parent="1">
          <mxGeometry x="537.5" y="610" width="75" height="50" as="geometry" />
        </mxCell>
        <mxCell id="hKPpPpnS2e1j_frjE1Dq-64" value="Address" style="ellipse;whiteSpace=wrap;html=1;" vertex="1" parent="1">
          <mxGeometry x="480" y="660" width="67.5" height="45" as="geometry" />
        </mxCell>
        <mxCell id="hKPpPpnS2e1j_frjE1Dq-65" value="Name" style="ellipse;whiteSpace=wrap;html=1;" vertex="1" parent="1">
          <mxGeometry x="405" y="660" width="67.5" height="45" as="geometry" />
        </mxCell>
        <mxCell id="hKPpPpnS2e1j_frjE1Dq-66" value="ID" style="ellipse;whiteSpace=wrap;html=1;" vertex="1" parent="1">
          <mxGeometry x="360" y="635" width="52.5" height="35" as="geometry" />
        </mxCell>
        <mxCell id="hKPpPpnS2e1j_frjE1Dq-67" value="Amount" style="ellipse;whiteSpace=wrap;html=1;" vertex="1" parent="1">
          <mxGeometry x="152.5" y="635" width="67.5" height="45" as="geometry" />
        </mxCell>
        <mxCell id="hKPpPpnS2e1j_frjE1Dq-69" value="" style="endArrow=none;html=1;entryX=1;entryY=0.5;entryDx=0;entryDy=0;exitX=0;exitY=1;exitDx=0;exitDy=0;" edge="1" parent="1" source="hKPpPpnS2e1j_frjE1Dq-53" target="hKPpPpnS2e1j_frjE1Dq-15">
          <mxGeometry width="50" height="50" relative="1" as="geometry">
            <mxPoint x="450" y="300" as="sourcePoint" />
            <mxPoint x="280" y="450" as="targetPoint" />
          </mxGeometry>
        </mxCell>
        <mxCell id="hKPpPpnS2e1j_frjE1Dq-70" value="" style="endArrow=none;html=1;exitX=0;exitY=0.5;exitDx=0;exitDy=0;entryX=1;entryY=0.5;entryDx=0;entryDy=0;" edge="1" parent="1" source="hKPpPpnS2e1j_frjE1Dq-52" target="hKPpPpnS2e1j_frjE1Dq-15">
          <mxGeometry width="50" height="50" relative="1" as="geometry">
            <mxPoint x="450" y="300" as="sourcePoint" />
            <mxPoint x="500" y="470" as="targetPoint" />
          </mxGeometry>
        </mxCell>
        <mxCell id="hKPpPpnS2e1j_frjE1Dq-71" value="" style="endArrow=none;html=1;entryX=1;entryY=0.5;entryDx=0;entryDy=0;exitX=0;exitY=0.5;exitDx=0;exitDy=0;" edge="1" parent="1" source="hKPpPpnS2e1j_frjE1Dq-51" target="hKPpPpnS2e1j_frjE1Dq-15">
          <mxGeometry width="50" height="50" relative="1" as="geometry">
            <mxPoint x="450" y="300" as="sourcePoint" />
            <mxPoint x="280" y="450" as="targetPoint" />
          </mxGeometry>
        </mxCell>
        <mxCell id="hKPpPpnS2e1j_frjE1Dq-72" value="" style="endArrow=none;html=1;entryX=1;entryY=0.5;entryDx=0;entryDy=0;exitX=0.5;exitY=0;exitDx=0;exitDy=0;" edge="1" parent="1" source="hKPpPpnS2e1j_frjE1Dq-54" target="hKPpPpnS2e1j_frjE1Dq-15">
          <mxGeometry width="50" height="50" relative="1" as="geometry">
            <mxPoint x="470" y="520" as="sourcePoint" />
            <mxPoint x="500" y="470" as="targetPoint" />
          </mxGeometry>
        </mxCell>
        <mxCell id="hKPpPpnS2e1j_frjE1Dq-73" value="" style="endArrow=none;html=1;entryX=0.5;entryY=1;entryDx=0;entryDy=0;exitX=0;exitY=0.5;exitDx=0;exitDy=0;" edge="1" parent="1" source="hKPpPpnS2e1j_frjE1Dq-63" target="hKPpPpnS2e1j_frjE1Dq-3">
          <mxGeometry width="50" height="50" relative="1" as="geometry">
            <mxPoint x="450" y="300" as="sourcePoint" />
            <mxPoint x="280" y="450" as="targetPoint" />
          </mxGeometry>
        </mxCell>
        <mxCell id="hKPpPpnS2e1j_frjE1Dq-74" value="" style="endArrow=none;html=1;entryX=0.5;entryY=1;entryDx=0;entryDy=0;exitX=0.5;exitY=0;exitDx=0;exitDy=0;" edge="1" parent="1" source="hKPpPpnS2e1j_frjE1Dq-64" target="hKPpPpnS2e1j_frjE1Dq-3">
          <mxGeometry width="50" height="50" relative="1" as="geometry">
            <mxPoint x="450" y="300" as="sourcePoint" />
            <mxPoint x="280" y="450" as="targetPoint" />
          </mxGeometry>
        </mxCell>
        <mxCell id="hKPpPpnS2e1j_frjE1Dq-75" value="" style="endArrow=none;html=1;entryX=0.5;entryY=1;entryDx=0;entryDy=0;exitX=0.5;exitY=0;exitDx=0;exitDy=0;" edge="1" parent="1" source="hKPpPpnS2e1j_frjE1Dq-65" target="hKPpPpnS2e1j_frjE1Dq-3">
          <mxGeometry width="50" height="50" relative="1" as="geometry">
            <mxPoint x="450" y="300" as="sourcePoint" />
            <mxPoint x="280" y="450" as="targetPoint" />
          </mxGeometry>
        </mxCell>
        <mxCell id="hKPpPpnS2e1j_frjE1Dq-76" value="" style="endArrow=none;html=1;entryX=0.5;entryY=1;entryDx=0;entryDy=0;exitX=1;exitY=0;exitDx=0;exitDy=0;" edge="1" parent="1" source="hKPpPpnS2e1j_frjE1Dq-66" target="hKPpPpnS2e1j_frjE1Dq-3">
          <mxGeometry width="50" height="50" relative="1" as="geometry">
            <mxPoint x="450" y="300" as="sourcePoint" />
            <mxPoint x="280" y="450" as="targetPoint" />
          </mxGeometry>
        </mxCell>
        <mxCell id="hKPpPpnS2e1j_frjE1Dq-77" value="" style="endArrow=none;html=1;entryX=0.5;entryY=0;entryDx=0;entryDy=0;exitX=1;exitY=0.5;exitDx=0;exitDy=0;" edge="1" parent="1" source="hKPpPpnS2e1j_frjE1Dq-31" target="hKPpPpnS2e1j_frjE1Dq-4">
          <mxGeometry width="50" height="50" relative="1" as="geometry">
            <mxPoint x="450" y="300" as="sourcePoint" />
            <mxPoint x="280" y="450" as="targetPoint" />
          </mxGeometry>
        </mxCell>
        <mxCell id="hKPpPpnS2e1j_frjE1Dq-78" value="" style="endArrow=none;html=1;entryX=0.5;entryY=0;entryDx=0;entryDy=0;exitX=0.5;exitY=1;exitDx=0;exitDy=0;" edge="1" parent="1" source="hKPpPpnS2e1j_frjE1Dq-36" target="hKPpPpnS2e1j_frjE1Dq-4">
          <mxGeometry width="50" height="50" relative="1" as="geometry">
            <mxPoint x="450" y="300" as="sourcePoint" />
            <mxPoint x="280" y="450" as="targetPoint" />
          </mxGeometry>
        </mxCell>
        <mxCell id="hKPpPpnS2e1j_frjE1Dq-79" value="" style="endArrow=none;html=1;entryX=0.5;entryY=0;entryDx=0;entryDy=0;exitX=0;exitY=1;exitDx=0;exitDy=0;" edge="1" parent="1" source="hKPpPpnS2e1j_frjE1Dq-33" target="hKPpPpnS2e1j_frjE1Dq-4">
          <mxGeometry width="50" height="50" relative="1" as="geometry">
            <mxPoint x="450" y="300" as="sourcePoint" />
            <mxPoint x="280" y="450" as="targetPoint" />
          </mxGeometry>
        </mxCell>
        <mxCell id="hKPpPpnS2e1j_frjE1Dq-80" value="" style="endArrow=none;html=1;entryX=0.5;entryY=0;entryDx=0;entryDy=0;exitX=0;exitY=0.5;exitDx=0;exitDy=0;" edge="1" parent="1" source="hKPpPpnS2e1j_frjE1Dq-34" target="hKPpPpnS2e1j_frjE1Dq-4">
          <mxGeometry width="50" height="50" relative="1" as="geometry">
            <mxPoint x="450" y="300" as="sourcePoint" />
            <mxPoint x="280" y="450" as="targetPoint" />
          </mxGeometry>
        </mxCell>
        <mxCell id="hKPpPpnS2e1j_frjE1Dq-81" value="" style="endArrow=none;html=1;entryX=0.5;entryY=1;entryDx=0;entryDy=0;exitX=0;exitY=0;exitDx=0;exitDy=0;" edge="1" parent="1" source="hKPpPpnS2e1j_frjE1Dq-67" target="hKPpPpnS2e1j_frjE1Dq-5">
          <mxGeometry width="50" height="50" relative="1" as="geometry">
            <mxPoint x="200" y="620" as="sourcePoint" />
            <mxPoint x="280" y="450" as="targetPoint" />
          </mxGeometry>
        </mxCell>
        <mxCell id="hKPpPpnS2e1j_frjE1Dq-82" value="" style="endArrow=none;html=1;entryX=0.5;entryY=1;entryDx=0;entryDy=0;exitX=0.5;exitY=0;exitDx=0;exitDy=0;" edge="1" parent="1" source="hKPpPpnS2e1j_frjE1Dq-59" target="hKPpPpnS2e1j_frjE1Dq-5">
          <mxGeometry width="50" height="50" relative="1" as="geometry">
            <mxPoint x="200" y="620" as="sourcePoint" />
            <mxPoint x="280" y="450" as="targetPoint" />
          </mxGeometry>
        </mxCell>
        <mxCell id="hKPpPpnS2e1j_frjE1Dq-83" value="" style="endArrow=none;html=1;entryX=0.5;entryY=1;entryDx=0;entryDy=0;exitX=1;exitY=0;exitDx=0;exitDy=0;" edge="1" parent="1" source="hKPpPpnS2e1j_frjE1Dq-61" target="hKPpPpnS2e1j_frjE1Dq-5">
          <mxGeometry width="50" height="50" relative="1" as="geometry">
            <mxPoint x="200" y="620" as="sourcePoint" />
            <mxPoint x="280" y="450" as="targetPoint" />
          </mxGeometry>
        </mxCell>
        <mxCell id="hKPpPpnS2e1j_frjE1Dq-84" value="" style="endArrow=none;html=1;entryX=0.5;entryY=0;entryDx=0;entryDy=0;exitX=1;exitY=0.5;exitDx=0;exitDy=0;" edge="1" parent="1" source="hKPpPpnS2e1j_frjE1Dq-26" target="hKPpPpnS2e1j_frjE1Dq-2">
          <mxGeometry width="50" height="50" relative="1" as="geometry">
            <mxPoint x="200" y="620" as="sourcePoint" />
            <mxPoint x="280" y="450" as="targetPoint" />
          </mxGeometry>
        </mxCell>
        <mxCell id="hKPpPpnS2e1j_frjE1Dq-85" value="" style="endArrow=none;html=1;entryX=0.5;entryY=0;entryDx=0;entryDy=0;exitX=0.5;exitY=1;exitDx=0;exitDy=0;" edge="1" parent="1" source="hKPpPpnS2e1j_frjE1Dq-27" target="hKPpPpnS2e1j_frjE1Dq-2">
          <mxGeometry width="50" height="50" relative="1" as="geometry">
            <mxPoint x="200" y="620" as="sourcePoint" />
            <mxPoint x="280" y="450" as="targetPoint" />
          </mxGeometry>
        </mxCell>
        <mxCell id="hKPpPpnS2e1j_frjE1Dq-86" value="" style="endArrow=none;html=1;entryX=0.5;entryY=0;entryDx=0;entryDy=0;exitX=0;exitY=1;exitDx=0;exitDy=0;" edge="1" parent="1" source="hKPpPpnS2e1j_frjE1Dq-28" target="hKPpPpnS2e1j_frjE1Dq-2">
          <mxGeometry width="50" height="50" relative="1" as="geometry">
            <mxPoint x="200" y="620" as="sourcePoint" />
            <mxPoint x="280" y="450" as="targetPoint" />
          </mxGeometry>
        </mxCell>
        <mxCell id="hKPpPpnS2e1j_frjE1Dq-87" value="" style="endArrow=none;html=1;entryX=0.5;entryY=0;entryDx=0;entryDy=0;exitX=0;exitY=0.5;exitDx=0;exitDy=0;" edge="1" parent="1" source="hKPpPpnS2e1j_frjE1Dq-62" target="hKPpPpnS2e1j_frjE1Dq-2">
          <mxGeometry width="50" height="50" relative="1" as="geometry">
            <mxPoint x="200" y="620" as="sourcePoint" />
            <mxPoint x="280" y="450" as="targetPoint" />
          </mxGeometry>
        </mxCell>
        <mxCell id="hKPpPpnS2e1j_frjE1Dq-88" value="" style="endArrow=none;html=1;entryX=1;entryY=1;entryDx=0;entryDy=0;exitX=0.5;exitY=0;exitDx=0;exitDy=0;" edge="1" parent="1" source="hKPpPpnS2e1j_frjE1Dq-19" target="hKPpPpnS2e1j_frjE1Dq-43">
          <mxGeometry width="50" height="50" relative="1" as="geometry">
            <mxPoint x="200" y="620" as="sourcePoint" />
            <mxPoint x="280" y="450" as="targetPoint" />
          </mxGeometry>
        </mxCell>
        <mxCell id="hKPpPpnS2e1j_frjE1Dq-89" value="" style="endArrow=none;html=1;entryX=0.5;entryY=1;entryDx=0;entryDy=0;exitX=0.5;exitY=0;exitDx=0;exitDy=0;" edge="1" parent="1" source="hKPpPpnS2e1j_frjE1Dq-19" target="hKPpPpnS2e1j_frjE1Dq-42">
          <mxGeometry width="50" height="50" relative="1" as="geometry">
            <mxPoint x="200" y="620" as="sourcePoint" />
            <mxPoint x="280" y="450" as="targetPoint" />
          </mxGeometry>
        </mxCell>
        <mxCell id="hKPpPpnS2e1j_frjE1Dq-90" value="" style="endArrow=none;html=1;entryX=0;entryY=1;entryDx=0;entryDy=0;exitX=0.5;exitY=0;exitDx=0;exitDy=0;" edge="1" parent="1" source="hKPpPpnS2e1j_frjE1Dq-19" target="hKPpPpnS2e1j_frjE1Dq-45">
          <mxGeometry width="50" height="50" relative="1" as="geometry">
            <mxPoint x="200" y="620" as="sourcePoint" />
            <mxPoint x="280" y="450" as="targetPoint" />
          </mxGeometry>
        </mxCell>
        <mxCell id="hKPpPpnS2e1j_frjE1Dq-91" value="" style="endArrow=none;html=1;exitX=0;exitY=0.5;exitDx=0;exitDy=0;entryX=1;entryY=0.5;entryDx=0;entryDy=0;" edge="1" parent="1" source="hKPpPpnS2e1j_frjE1Dq-21" target="hKPpPpnS2e1j_frjE1Dq-19">
          <mxGeometry width="50" height="50" relative="1" as="geometry">
            <mxPoint x="580" y="430" as="sourcePoint" />
            <mxPoint x="540" y="350" as="targetPoint" />
          </mxGeometry>
        </mxCell>
        <mxCell id="hKPpPpnS2e1j_frjE1Dq-92" value="" style="endArrow=none;html=1;entryX=0;entryY=0.5;entryDx=0;entryDy=0;exitX=1;exitY=0.5;exitDx=0;exitDy=0;" edge="1" parent="1" source="hKPpPpnS2e1j_frjE1Dq-21" target="hKPpPpnS2e1j_frjE1Dq-20">
          <mxGeometry width="50" height="50" relative="1" as="geometry">
            <mxPoint x="680" y="410" as="sourcePoint" />
            <mxPoint x="600" y="400" as="targetPoint" />
          </mxGeometry>
        </mxCell>
      </root>
    </mxGraphModel>
  </diagram>
</mxfile>
